<svg xmlns="http://www.w3.org/2000/svg" xmlns:xlink="http://www.w3.org/1999/xlink" zoomAndPan="magnify" preserveAspectRatio="xMidYMid meet" version="1.0" viewBox="100.9 80.8 230.5 174.9"><defs><g/><clipPath id="1db6c03358"><path d="M 115 80.914062 L 331.515625 80.914062 L 331.515625 255.664062 L 115 255.664062 Z M 115 80.914062 " clip-rule="nonzero"/></clipPath></defs><g clip-path="url(#1db6c03358)"><path fill="#000000" d="M 186.097656 255.675781 C 160.453125 255.675781 136.371094 252.652344 115.449219 247.335938 C 129.847656 249.523438 145.25 250.703125 161.257812 250.703125 C 241.5 250.703125 306.550781 221.078125 306.550781 184.53125 C 306.550781 159.675781 276.4375 138.023438 231.910156 126.703125 C 289.707031 135.445312 331.394531 160.257812 331.394531 189.523438 C 331.394531 226.054688 266.339844 255.675781 186.097656 255.675781 Z M 188.796875 115.726562 L 188.796875 115.191406 C 220.828125 115.191406 223.152344 109.996094 223.152344 80.820312 L 223.6875 80.820312 C 223.6875 109.996094 226.027344 115.191406 258.0625 115.191406 L 258.0625 115.726562 C 226.027344 115.726562 223.6875 120.910156 223.6875 150.085938 L 223.152344 150.085938 C 223.152344 120.910156 220.828125 115.726562 188.796875 115.726562 " fill-opacity="1" fill-rule="evenodd"/></g><g fill="#000000" fill-opacity="1"><g transform="translate(98.186127, 192.2965)"><g><path d="M 22.5625 -37.4375 C 20.382812 -37.4375 18.5 -36.984375 16.90625 -36.078125 C 15.3125 -35.171875 14 -33.976562 12.96875 -32.5 C 11.945312 -31.03125 11.191406 -29.378906 10.703125 -27.546875 C 10.222656 -25.710938 9.984375 -23.847656 9.984375 -21.953125 C 9.984375 -19.691406 10.3125 -17.398438 10.96875 -15.078125 C 11.632812 -12.765625 12.625 -10.660156 13.9375 -8.765625 C 15.25 -6.867188 16.863281 -5.328125 18.78125 -4.140625 C 20.695312 -2.953125 22.925781 -2.359375 25.46875 -2.359375 C 27.5625 -2.359375 29.414062 -2.78125 31.03125 -3.625 C 32.644531 -4.476562 33.992188 -5.609375 35.078125 -7.015625 C 36.171875 -8.429688 36.988281 -10.046875 37.53125 -11.859375 C 38.070312 -13.671875 38.34375 -15.566406 38.34375 -17.546875 C 38.34375 -20.203125 37.929688 -22.726562 37.109375 -25.125 C 36.285156 -27.53125 35.15625 -29.648438 33.71875 -31.484375 C 32.289062 -33.316406 30.617188 -34.765625 28.703125 -35.828125 C 26.785156 -36.898438 24.738281 -37.4375 22.5625 -37.4375 Z M 2.71875 -19.78125 C 2.71875 -22.800781 3.269531 -25.582031 4.375 -28.125 C 5.488281 -30.664062 7.003906 -32.863281 8.921875 -34.71875 C 10.835938 -36.570312 13.082031 -38.007812 15.65625 -39.03125 C 18.238281 -40.0625 21.023438 -40.578125 24.015625 -40.578125 C 27.078125 -40.578125 29.925781 -40.050781 32.5625 -39 C 35.207031 -37.957031 37.5 -36.5 39.4375 -34.625 C 41.375 -32.75 42.882812 -30.507812 43.96875 -27.90625 C 45.0625 -25.3125 45.609375 -22.460938 45.609375 -19.359375 C 45.609375 -16.410156 45.019531 -13.707031 43.84375 -11.25 C 42.675781 -8.789062 41.09375 -6.660156 39.09375 -4.859375 C 37.101562 -3.066406 34.804688 -1.675781 32.203125 -0.6875 C 29.609375 0.289062 26.898438 0.78125 24.078125 0.78125 C 20.566406 0.78125 17.476562 0.164062 14.8125 -1.0625 C 12.15625 -2.289062 9.925781 -3.890625 8.125 -5.859375 C 6.332031 -7.835938 4.984375 -10.046875 4.078125 -12.484375 C 3.171875 -14.929688 2.71875 -17.363281 2.71875 -19.78125 Z M 2.71875 -19.78125 "/></g></g></g><g fill="#000000" fill-opacity="1"><g transform="translate(145.360618, 192.2965)"><g><path d="M 17.546875 -39.796875 L 17.546875 -39.25 C 16.859375 -39.050781 16.515625 -38.648438 16.515625 -38.046875 C 16.515625 -37.878906 16.5625 -37.59375 16.65625 -37.1875 C 16.757812 -36.789062 16.972656 -36.332031 17.296875 -35.8125 L 24.25 -23.109375 L 31.15625 -34.296875 C 31.394531 -34.703125 31.710938 -35.273438 32.109375 -36.015625 C 32.515625 -36.765625 32.71875 -37.421875 32.71875 -37.984375 C 32.71875 -38.671875 32.335938 -39.09375 31.578125 -39.25 L 31.578125 -39.796875 L 46.15625 -39.796875 L 46.15625 -39.25 C 45.300781 -39.132812 44.613281 -38.894531 44.09375 -38.53125 C 43.570312 -38.164062 43.164062 -37.707031 42.875 -37.15625 C 42.59375 -36.613281 42.410156 -35.976562 42.328125 -35.25 C 42.253906 -34.53125 42.21875 -33.75 42.21875 -32.90625 L 42.21875 -7.265625 C 42.21875 -6.410156 42.253906 -5.609375 42.328125 -4.859375 C 42.410156 -4.117188 42.59375 -3.445312 42.875 -2.84375 C 43.164062 -2.238281 43.570312 -1.734375 44.09375 -1.328125 C 44.613281 -0.921875 45.300781 -0.660156 46.15625 -0.546875 L 46.15625 0 L 31.640625 0 L 31.640625 -0.546875 C 32.523438 -0.628906 33.21875 -0.847656 33.71875 -1.203125 C 34.21875 -1.566406 34.609375 -2.019531 34.890625 -2.5625 C 35.179688 -3.113281 35.363281 -3.75 35.4375 -4.46875 C 35.519531 -5.195312 35.5625 -5.984375 35.5625 -6.828125 L 35.5625 -35.625 L 22.3125 -14.15625 L 10.09375 -35.625 L 10.09375 -7.265625 C 10.09375 -6.367188 10.132812 -5.523438 10.21875 -4.734375 C 10.300781 -3.953125 10.484375 -3.269531 10.765625 -2.6875 C 11.046875 -2.101562 11.445312 -1.617188 11.96875 -1.234375 C 12.5 -0.859375 13.1875 -0.628906 14.03125 -0.546875 L 14.03125 0 L 2.234375 0 L 2.234375 -0.546875 C 3.117188 -0.660156 3.8125 -0.898438 4.3125 -1.265625 C 4.820312 -1.628906 5.21875 -2.09375 5.5 -2.65625 C 5.78125 -3.226562 5.960938 -3.863281 6.046875 -4.5625 C 6.128906 -5.269531 6.171875 -6.023438 6.171875 -6.828125 L 6.171875 -32.546875 C 6.171875 -33.347656 6.128906 -34.117188 6.046875 -34.859375 C 5.960938 -35.609375 5.78125 -36.285156 5.5 -36.890625 C 5.21875 -37.492188 4.820312 -38.007812 4.3125 -38.4375 C 3.8125 -38.863281 3.117188 -39.132812 2.234375 -39.25 L 2.234375 -39.796875 Z M 17.546875 -39.796875 "/></g></g></g><g fill="#000000" fill-opacity="1"><g transform="translate(192.53511, 192.2965)"><g><path d="M 18.03125 -39.796875 L 18.03125 -39.25 C 17.175781 -39.175781 16.75 -38.9375 16.75 -38.53125 C 16.75 -38.445312 16.828125 -38.222656 16.984375 -37.859375 C 17.148438 -37.492188 17.675781 -36.953125 18.5625 -36.234375 L 32.421875 -24.671875 L 32.421875 -32.546875 C 32.421875 -33.429688 32.367188 -34.265625 32.265625 -35.046875 C 32.171875 -35.835938 31.976562 -36.523438 31.6875 -37.109375 C 31.40625 -37.691406 31.003906 -38.175781 30.484375 -38.5625 C 29.960938 -38.945312 29.257812 -39.175781 28.375 -39.25 L 28.375 -39.796875 L 40.28125 -39.796875 L 40.28125 -39.25 C 39.394531 -39.132812 38.6875 -38.882812 38.15625 -38.5 C 37.632812 -38.113281 37.242188 -37.628906 36.984375 -37.046875 C 36.722656 -36.460938 36.550781 -35.816406 36.46875 -35.109375 C 36.382812 -34.398438 36.34375 -33.664062 36.34375 -32.90625 L 36.34375 -7.265625 C 36.34375 -6.367188 36.382812 -5.546875 36.46875 -4.796875 C 36.550781 -4.054688 36.734375 -3.394531 37.015625 -2.8125 C 37.296875 -2.226562 37.695312 -1.734375 38.21875 -1.328125 C 38.75 -0.921875 39.4375 -0.660156 40.28125 -0.546875 L 40.28125 0 L 28.375 0 L 28.375 -0.546875 C 29.21875 -0.660156 29.910156 -0.890625 30.453125 -1.234375 C 30.992188 -1.578125 31.40625 -2.019531 31.6875 -2.5625 C 31.976562 -3.113281 32.171875 -3.75 32.265625 -4.46875 C 32.367188 -5.195312 32.421875 -6.023438 32.421875 -6.953125 L 32.421875 -13.421875 C 32.421875 -14.023438 32.390625 -14.539062 32.328125 -14.96875 C 32.265625 -15.394531 32.113281 -15.804688 31.875 -16.203125 C 31.632812 -16.609375 31.289062 -17.03125 30.84375 -17.46875 C 30.40625 -17.914062 29.820312 -18.441406 29.09375 -19.046875 L 9.984375 -34.953125 L 9.984375 -7.265625 C 9.984375 -6.410156 10.019531 -5.585938 10.09375 -4.796875 C 10.175781 -4.015625 10.359375 -3.320312 10.640625 -2.71875 C 10.921875 -2.113281 11.320312 -1.617188 11.84375 -1.234375 C 12.375 -0.859375 13.0625 -0.628906 13.90625 -0.546875 L 13.90625 0 L 2.109375 0 L 2.109375 -0.546875 C 3.003906 -0.660156 3.710938 -0.910156 4.234375 -1.296875 C 4.753906 -1.679688 5.144531 -2.164062 5.40625 -2.75 C 5.675781 -3.332031 5.847656 -3.976562 5.921875 -4.6875 C 6.003906 -5.394531 6.046875 -6.128906 6.046875 -6.890625 L 6.046875 -32.546875 C 6.046875 -33.347656 6.003906 -34.117188 5.921875 -34.859375 C 5.847656 -35.609375 5.664062 -36.285156 5.375 -36.890625 C 5.09375 -37.492188 4.703125 -38.007812 4.203125 -38.4375 C 3.703125 -38.863281 3.003906 -39.132812 2.109375 -39.25 L 2.109375 -39.796875 Z M 18.03125 -39.796875 "/></g></g></g><g fill="#000000" fill-opacity="1"><g transform="translate(233.661562, 192.2965)"><g><path d="M 16.9375 -39.796875 L 16.9375 -39.25 C 16.09375 -39.132812 15.40625 -38.894531 14.875 -38.53125 C 14.351562 -38.164062 13.953125 -37.707031 13.671875 -37.15625 C 13.390625 -36.613281 13.207031 -35.976562 13.125 -35.25 C 13.039062 -34.53125 13 -33.75 13 -32.90625 L 13 -7.265625 C 13 -6.453125 13.039062 -5.660156 13.125 -4.890625 C 13.207031 -4.128906 13.378906 -3.445312 13.640625 -2.84375 C 13.898438 -2.238281 14.289062 -1.734375 14.8125 -1.328125 C 15.34375 -0.921875 16.050781 -0.660156 16.9375 -0.546875 L 16.9375 0 L 2.421875 0 L 2.421875 -0.546875 C 3.304688 -0.660156 4 -0.898438 4.5 -1.265625 C 5.007812 -1.628906 5.40625 -2.082031 5.6875 -2.625 C 5.96875 -3.175781 6.144531 -3.800781 6.21875 -4.5 C 6.300781 -5.207031 6.34375 -5.984375 6.34375 -6.828125 L 6.34375 -32.546875 C 6.34375 -33.347656 6.300781 -34.128906 6.21875 -34.890625 C 6.144531 -35.660156 5.96875 -36.347656 5.6875 -36.953125 C 5.40625 -37.554688 5.007812 -38.0625 4.5 -38.46875 C 4 -38.875 3.304688 -39.132812 2.421875 -39.25 L 2.421875 -39.796875 Z M 16.9375 -39.796875 "/></g></g></g><g fill="#000000" fill-opacity="1"><g transform="translate(121.689631, 229.596064)"><g><path d="M 8.40625 -20.125 L 8.40625 -19.859375 C 7.550781 -19.773438 7.003906 -19.441406 6.765625 -18.859375 C 6.535156 -18.273438 6.421875 -17.546875 6.421875 -16.671875 L 6.421875 -4.5 C 6.421875 -3.863281 6.460938 -3.347656 6.546875 -2.953125 C 6.628906 -2.554688 6.757812 -2.238281 6.9375 -2 C 7.125 -1.769531 7.359375 -1.613281 7.640625 -1.53125 C 7.929688 -1.445312 8.28125 -1.40625 8.6875 -1.40625 C 9.664062 -1.40625 10.59375 -1.546875 11.46875 -1.828125 C 12.34375 -2.117188 13.144531 -2.519531 13.875 -3.03125 C 14.613281 -3.539062 15.28125 -4.15625 15.875 -4.875 C 16.46875 -5.601562 16.976562 -6.414062 17.40625 -7.3125 L 17.6875 -7.15625 L 15.046875 0.421875 C 14.972656 0.347656 14.820312 0.257812 14.59375 0.15625 C 14.363281 0.0507812 13.96875 0 13.40625 0 L 1.078125 0 L 1.078125 -0.28125 C 1.765625 -0.414062 2.265625 -0.722656 2.578125 -1.203125 C 2.898438 -1.679688 3.0625 -2.421875 3.0625 -3.421875 L 3.0625 -16.453125 C 3.0625 -16.867188 3.039062 -17.269531 3 -17.65625 C 2.957031 -18.039062 2.863281 -18.382812 2.71875 -18.6875 C 2.582031 -19 2.382812 -19.253906 2.125 -19.453125 C 1.875 -19.660156 1.523438 -19.796875 1.078125 -19.859375 L 1.078125 -20.125 Z M 8.40625 -20.125 "/></g></g></g><g fill="#000000" fill-opacity="1"><g transform="translate(151.75953, 229.596064)"><g><path d="M 8.5625 -20.125 L 8.5625 -19.859375 C 8.132812 -19.796875 7.785156 -19.671875 7.515625 -19.484375 C 7.253906 -19.304688 7.050781 -19.078125 6.90625 -18.796875 C 6.769531 -18.523438 6.679688 -18.203125 6.640625 -17.828125 C 6.597656 -17.460938 6.578125 -17.066406 6.578125 -16.640625 L 6.578125 -3.671875 C 6.578125 -3.265625 6.597656 -2.863281 6.640625 -2.46875 C 6.679688 -2.082031 6.765625 -1.738281 6.890625 -1.4375 C 7.023438 -1.132812 7.222656 -0.878906 7.484375 -0.671875 C 7.753906 -0.460938 8.113281 -0.332031 8.5625 -0.28125 L 8.5625 0 L 1.21875 0 L 1.21875 -0.28125 C 1.664062 -0.332031 2.015625 -0.453125 2.265625 -0.640625 C 2.523438 -0.828125 2.726562 -1.054688 2.875 -1.328125 C 3.019531 -1.609375 3.113281 -1.925781 3.15625 -2.28125 C 3.195312 -2.632812 3.21875 -3.023438 3.21875 -3.453125 L 3.21875 -16.453125 C 3.21875 -16.867188 3.195312 -17.269531 3.15625 -17.65625 C 3.113281 -18.039062 3.019531 -18.382812 2.875 -18.6875 C 2.726562 -19 2.523438 -19.253906 2.265625 -19.453125 C 2.015625 -19.660156 1.664062 -19.796875 1.21875 -19.859375 L 1.21875 -20.125 Z M 8.5625 -20.125 "/></g></g></g><g fill="#000000" fill-opacity="1"><g transform="translate(174.4888, 229.596064)"><g><path d="M 9.109375 -20.125 L 9.109375 -19.859375 C 8.679688 -19.816406 8.46875 -19.691406 8.46875 -19.484375 C 8.46875 -19.441406 8.507812 -19.328125 8.59375 -19.140625 C 8.675781 -18.960938 8.941406 -18.691406 9.390625 -18.328125 L 16.390625 -12.484375 L 16.390625 -16.453125 C 16.390625 -16.898438 16.363281 -17.320312 16.3125 -17.71875 C 16.269531 -18.125 16.175781 -18.472656 16.03125 -18.765625 C 15.882812 -19.066406 15.675781 -19.3125 15.40625 -19.5 C 15.144531 -19.695312 14.789062 -19.816406 14.34375 -19.859375 L 14.34375 -20.125 L 20.375 -20.125 L 20.375 -19.859375 C 19.925781 -19.796875 19.566406 -19.664062 19.296875 -19.46875 C 19.035156 -19.28125 18.835938 -19.035156 18.703125 -18.734375 C 18.578125 -18.441406 18.492188 -18.113281 18.453125 -17.75 C 18.410156 -17.394531 18.390625 -17.023438 18.390625 -16.640625 L 18.390625 -3.671875 C 18.390625 -3.222656 18.410156 -2.804688 18.453125 -2.421875 C 18.492188 -2.046875 18.582031 -1.710938 18.71875 -1.421875 C 18.863281 -1.128906 19.066406 -0.878906 19.328125 -0.671875 C 19.597656 -0.460938 19.945312 -0.332031 20.375 -0.28125 L 20.375 0 L 14.34375 0 L 14.34375 -0.28125 C 14.769531 -0.332031 15.117188 -0.445312 15.390625 -0.625 C 15.671875 -0.800781 15.882812 -1.023438 16.03125 -1.296875 C 16.175781 -1.578125 16.269531 -1.898438 16.3125 -2.265625 C 16.363281 -2.628906 16.390625 -3.046875 16.390625 -3.515625 L 16.390625 -6.796875 C 16.390625 -7.097656 16.375 -7.351562 16.34375 -7.5625 C 16.320312 -7.78125 16.25 -7.988281 16.125 -8.1875 C 16 -8.394531 15.820312 -8.609375 15.59375 -8.828125 C 15.375 -9.054688 15.082031 -9.328125 14.71875 -9.640625 L 5.046875 -17.6875 L 5.046875 -3.671875 C 5.046875 -3.242188 5.066406 -2.828125 5.109375 -2.421875 C 5.148438 -2.023438 5.238281 -1.675781 5.375 -1.375 C 5.519531 -1.070312 5.722656 -0.820312 5.984375 -0.625 C 6.253906 -0.4375 6.601562 -0.320312 7.03125 -0.28125 L 7.03125 0 L 1.078125 0 L 1.078125 -0.28125 C 1.523438 -0.332031 1.878906 -0.457031 2.140625 -0.65625 C 2.410156 -0.851562 2.609375 -1.097656 2.734375 -1.390625 C 2.867188 -1.679688 2.957031 -2.003906 3 -2.359375 C 3.039062 -2.722656 3.0625 -3.097656 3.0625 -3.484375 L 3.0625 -16.453125 C 3.0625 -16.867188 3.039062 -17.265625 3 -17.640625 C 2.957031 -18.015625 2.863281 -18.351562 2.71875 -18.65625 C 2.582031 -18.96875 2.382812 -19.226562 2.125 -19.4375 C 1.875 -19.65625 1.523438 -19.796875 1.078125 -19.859375 L 1.078125 -20.125 Z M 9.109375 -20.125 "/></g></g></g><g fill="#000000" fill-opacity="1"><g transform="translate(208.840723, 229.596064)"><g><path d="M 8.4375 -20.125 L 8.4375 -19.859375 C 7.582031 -19.773438 7.035156 -19.441406 6.796875 -18.859375 C 6.566406 -18.273438 6.453125 -17.546875 6.453125 -16.671875 L 6.453125 -12.609375 L 8.9375 -14.59375 C 10.46875 -15.8125 11.554688 -16.769531 12.203125 -17.46875 C 12.859375 -18.164062 13.1875 -18.71875 13.1875 -19.125 C 13.1875 -19.382812 13.113281 -19.5625 12.96875 -19.65625 C 12.820312 -19.75 12.617188 -19.816406 12.359375 -19.859375 L 12.359375 -20.125 L 19.734375 -20.125 L 19.734375 -19.859375 C 19.390625 -19.816406 19.039062 -19.765625 18.6875 -19.703125 C 18.34375 -19.640625 17.957031 -19.5 17.53125 -19.28125 C 17.101562 -19.070312 16.59375 -18.769531 16 -18.375 C 15.40625 -17.976562 14.691406 -17.429688 13.859375 -16.734375 L 11.71875 -14.953125 C 12.394531 -14.304688 13.03125 -13.628906 13.625 -12.921875 C 14.226562 -12.222656 14.804688 -11.460938 15.359375 -10.640625 C 15.910156 -9.828125 16.441406 -8.9375 16.953125 -7.96875 C 17.460938 -7 17.953125 -5.921875 18.421875 -4.734375 L 19.1875 -2.875 C 19.300781 -2.570312 19.421875 -2.273438 19.546875 -1.984375 C 19.671875 -1.703125 19.8125 -1.4375 19.96875 -1.1875 C 20.132812 -0.945312 20.328125 -0.742188 20.546875 -0.578125 C 20.773438 -0.421875 21.054688 -0.320312 21.390625 -0.28125 L 21.390625 0 L 14.65625 0 L 14.65625 -0.28125 C 14.9375 -0.320312 15.179688 -0.441406 15.390625 -0.640625 C 15.609375 -0.847656 15.71875 -1.125 15.71875 -1.46875 C 15.71875 -1.851562 15.601562 -2.4375 15.375 -3.21875 C 15.15625 -4.007812 14.796875 -4.921875 14.296875 -5.953125 C 13.796875 -6.984375 13.144531 -8.097656 12.34375 -9.296875 C 11.539062 -10.503906 10.546875 -11.738281 9.359375 -13 L 6.453125 -10.671875 L 6.453125 -3.671875 C 6.453125 -3.242188 6.472656 -2.828125 6.515625 -2.421875 C 6.554688 -2.023438 6.644531 -1.675781 6.78125 -1.375 C 6.925781 -1.070312 7.128906 -0.820312 7.390625 -0.625 C 7.660156 -0.4375 8.007812 -0.320312 8.4375 -0.28125 L 8.4375 0 L 1.09375 0 L 1.09375 -0.28125 C 1.53125 -0.332031 1.878906 -0.453125 2.140625 -0.640625 C 2.410156 -0.828125 2.613281 -1.054688 2.75 -1.328125 C 2.894531 -1.609375 2.988281 -1.929688 3.03125 -2.296875 C 3.070312 -2.660156 3.09375 -3.054688 3.09375 -3.484375 L 3.09375 -16.453125 C 3.09375 -16.890625 3.070312 -17.296875 3.03125 -17.671875 C 2.988281 -18.046875 2.894531 -18.382812 2.75 -18.6875 C 2.613281 -19 2.410156 -19.253906 2.140625 -19.453125 C 1.878906 -19.660156 1.53125 -19.796875 1.09375 -19.859375 L 1.09375 -20.125 Z M 8.4375 -20.125 "/></g></g></g></svg>
